<svg width="136" height="27" viewBox="0 0 136 27" fill="none" xmlns="http://www.w3.org/2000/svg">
<g clip-path="url(#clip0_3368_1419)">
<path d="M13.2342 0.220509C11.1124 0.604125 9.47551 2.39064 9.31682 4.49789L9.28757 4.89164L8.88933 4.63289C8.25146 4.22001 7.51119 3.96578 6.73383 3.89376C4.5063 3.6969 2.47113 5.03113 1.7612 7.15737C1.57896 7.70411 1.52159 8.16538 1.54972 8.86625C1.58346 9.78313 1.82758 10.5515 2.33721 11.3143C2.59596 11.7125 3.16747 12.293 3.55109 12.5529L3.87284 12.779L3.48356 12.9804C2.9942 13.2301 2.60045 13.5181 2.22582 13.8973C0.953433 15.1888 0.527078 17.152 1.15031 18.8753C1.88944 20.9207 4.00106 22.2402 6.12291 21.9903C6.73268 21.9184 7.05893 21.8318 7.58204 21.6067L8.00954 21.4244L7.9803 21.8374C7.89368 23.1762 8.44156 24.5778 9.41581 25.5196C10.3135 26.3836 11.2979 26.811 12.5265 26.8683C13.5829 26.9166 14.5087 26.6669 15.3772 26.0999C16.572 25.3226 17.3977 23.9354 17.508 22.5336L17.5417 22.1355L17.8297 22.3323C19.2213 23.2783 21.0168 23.4224 22.5392 22.7113C23.9363 22.0532 24.8858 20.8395 25.2076 19.298C25.3416 18.6545 25.3089 17.7286 25.1256 17.1144C24.7946 15.9917 24.1073 15.0264 23.2153 14.4358L22.9418 14.2535L23.3693 14.0375C24.276 13.5718 24.9962 12.8326 25.4675 11.882C25.8276 11.1474 25.9377 10.6726 25.9377 9.81763C25.9423 9.06837 25.8658 8.63637 25.6204 8.01761C25.0681 6.62601 23.8205 5.53586 22.3422 5.15673C21.9439 5.051 21.7516 5.03187 21.2138 5.03187C20.3014 5.02737 19.7164 5.17138 18.8479 5.60787C18.8288 5.618 18.8243 5.45373 18.8434 5.24337C18.9053 4.48063 18.7096 3.53451 18.3293 2.76611C17.4034 0.904257 15.2906 -0.152186 13.232 0.222502L13.2342 0.220509ZM18.2978 4.85788C18.2494 5.09302 18.2258 5.51037 18.2213 6.12014C18.2168 6.88852 18.2359 7.11799 18.3226 7.56012C18.6398 9.125 19.3407 10.3828 20.5017 11.4965C21.2836 12.2401 22.2916 12.8499 23.2185 13.1334C23.4639 13.2099 23.6652 13.2819 23.6652 13.2965C23.6652 13.3111 23.5168 13.373 23.339 13.436C22.5042 13.7195 21.4771 14.3574 20.747 15.0436C18.9278 16.7716 18.0931 19.537 18.6691 21.951L18.7557 22.3156L18.569 22.1614C17.4068 21.2108 16.2548 20.6686 14.9263 20.4436C14.4179 20.3569 14.2108 20.3422 13.5156 20.3671C12.6415 20.3962 12.124 20.4818 11.413 20.7168C10.5107 21.0151 9.55561 21.5572 8.83559 22.1906C8.63873 22.3638 8.47111 22.5022 8.47111 22.4977C8.4666 22.4932 8.49023 22.3346 8.52848 22.1523C8.6961 21.2929 8.66236 20.1263 8.44185 19.1768C8.04361 17.4488 6.88146 15.7692 5.39424 14.7701C4.83287 14.3955 4.08361 14.0265 3.55599 13.8679C3.34448 13.806 3.17237 13.743 3.17237 13.7239C3.17237 13.7092 3.31638 13.6519 3.49862 13.5945C4.77101 13.1816 6.25374 12.0296 7.05024 10.8349C7.47209 10.206 7.72749 9.67837 7.97161 8.93924C8.24498 8.11349 8.32711 7.56675 8.32147 6.6251C8.32147 5.8815 8.22585 5.12775 8.08635 4.78236C8.06721 4.72949 8.20109 4.81161 8.40811 4.97925C9.38235 5.77573 10.477 6.29886 11.7155 6.56324C12.3444 6.69712 13.9182 6.68362 14.5764 6.53961C15.887 6.25611 17.0289 5.69025 17.9794 4.84986C18.1909 4.66762 18.363 4.51349 18.3686 4.51349C18.3686 4.51349 18.3394 4.6721 18.3011 4.85885L18.2978 4.85788Z" fill="#007BFE"/>
</g>
<path d="M37.1406 22.0108V5.95678H39.7166L42.7526 11.6378L44.3166 14.6048H44.4316L49.0546 5.95678H51.5386V22.0108H49.6526V8.48678H49.5376L48.1806 11.1778L44.3396 18.1698L40.4986 11.1778L39.1416 8.48678H39.0266V22.0108H37.1406Z" fill="#212121"/>
<path d="M60.0837 22.2868C59.0103 22.2868 58.075 22.0338 57.2777 21.5278C56.4803 21.0065 55.8593 20.2858 55.4147 19.3658C54.97 18.4305 54.7477 17.3341 54.7477 16.0768C54.7477 14.8195 54.97 13.7308 55.4147 12.8108C55.8593 11.8755 56.4803 11.1548 57.2777 10.6488C58.075 10.1275 59.0103 9.86678 60.0837 9.86678C61.1417 9.86678 62.054 10.1198 62.8207 10.6258C63.5873 11.1164 64.1777 11.7988 64.5917 12.6728C65.0057 13.5468 65.2127 14.5435 65.2127 15.6628V16.5368H56.6797V17.0888C56.6797 18.1161 56.9863 18.9748 57.5997 19.6648C58.2283 20.3395 59.0947 20.6768 60.1987 20.6768C60.95 20.6768 61.6017 20.5005 62.1537 20.1478C62.721 19.7951 63.158 19.2891 63.4647 18.6298L64.7757 19.5728C64.3923 20.3701 63.7943 21.0218 62.9817 21.5278C62.169 22.0338 61.203 22.2868 60.0837 22.2868ZM60.0837 11.4078C59.4243 11.4078 58.834 11.5611 58.3127 11.8678C57.8067 12.1744 57.408 12.6038 57.1167 13.1558C56.8253 13.6925 56.6797 14.3058 56.6797 14.9958V15.1568H63.2347V14.9038C63.2347 14.1985 63.1043 13.5851 62.8437 13.0638C62.583 12.5425 62.215 12.1361 61.7397 11.8448C61.2643 11.5535 60.7123 11.4078 60.0837 11.4078Z" fill="#212121"/>
<path d="M75.8347 22.0108V20.0788H75.7427C75.39 20.8148 74.9224 21.3668 74.3397 21.7348C73.7724 22.1028 73.0824 22.2868 72.2697 22.2868C71.2884 22.2868 70.4297 22.0338 69.6937 21.5278C68.973 21.0218 68.4134 20.3011 68.0147 19.3658C67.6314 18.4305 67.4397 17.3341 67.4397 16.0768C67.4397 14.8041 67.6314 13.7078 68.0147 12.7878C68.4134 11.8525 68.973 11.1318 69.6937 10.6258C70.4297 10.1198 71.2884 9.86678 72.2697 9.86678C73.0824 9.86678 73.7877 10.0508 74.3857 10.4188C74.9837 10.7714 75.436 11.3235 75.7427 12.0748H75.8347V4.99078H77.6747V22.0108H75.8347ZM72.7757 20.6308C73.343 20.6308 73.8567 20.5388 74.3167 20.3548C74.7767 20.1555 75.1447 19.8795 75.4207 19.5268C75.6967 19.1588 75.8347 18.7218 75.8347 18.2158V13.7998C75.8347 13.3551 75.6967 12.9641 75.4207 12.6268C75.1447 12.2895 74.7767 12.0211 74.3167 11.8218C73.8567 11.6225 73.343 11.5228 72.7757 11.5228C71.7484 11.5228 70.928 11.8525 70.3147 12.5118C69.7167 13.1558 69.4177 14.0068 69.4177 15.0648V17.0888C69.4177 18.1468 69.7167 19.0055 70.3147 19.6648C70.928 20.3088 71.7484 20.6308 72.7757 20.6308Z" fill="#212121"/>
<path d="M92.2815 7.65878H87.1755V22.0108H85.2435V7.65878H80.1375V5.95678H92.2815V7.65878Z" fill="#212121"/>
<path d="M95.5554 22.0108H93.7154V10.1428H95.5554V12.3278H95.6704C95.8084 11.9445 96.0231 11.5918 96.3144 11.2698C96.6057 10.9325 96.9814 10.6641 97.4414 10.4648C97.9014 10.2501 98.4534 10.1428 99.0974 10.1428H99.8104V11.9828H98.7294C98.0701 11.9828 97.5027 12.0748 97.0274 12.2588C96.5521 12.4275 96.1841 12.6575 95.9234 12.9488C95.6781 13.2401 95.5554 13.5774 95.5554 13.9608V22.0108Z" fill="#212121"/>
<path d="M111.731 22.0108H110.696C110.205 22.0108 109.807 21.9111 109.5 21.7118C109.193 21.4971 108.971 21.2058 108.833 20.8378C108.695 20.4698 108.626 20.0481 108.626 19.5728V19.4118L109.339 20.0788H108.534C108.289 20.7995 107.859 21.3514 107.246 21.7348C106.648 22.1028 105.935 22.2868 105.107 22.2868C103.85 22.2868 102.868 21.9648 102.163 21.3208C101.473 20.6768 101.128 19.8028 101.128 18.6988C101.128 17.9475 101.312 17.3188 101.68 16.8128C102.048 16.2914 102.6 15.9005 103.336 15.6398C104.087 15.3638 105.038 15.2258 106.188 15.2258H108.534V14.0528C108.534 13.2095 108.304 12.5655 107.844 12.1208C107.384 11.6761 106.679 11.4538 105.728 11.4538C105.023 11.4538 104.425 11.6148 103.934 11.9368C103.443 12.2588 103.037 12.6881 102.715 13.2248L101.611 12.1898C101.933 11.5611 102.447 11.0168 103.152 10.5568C103.857 10.0968 104.747 9.86678 105.82 9.86678C107.246 9.86678 108.358 10.2195 109.155 10.9248C109.968 11.6301 110.374 12.6115 110.374 13.8688V20.4008H111.731V22.0108ZM108.534 16.6058H106.096C105.053 16.6058 104.287 16.7591 103.796 17.0658C103.305 17.3725 103.06 17.8171 103.06 18.3998V18.8828C103.06 19.4655 103.275 19.9178 103.704 20.2398C104.133 20.5618 104.701 20.7228 105.406 20.7228C106.019 20.7228 106.556 20.6308 107.016 20.4468C107.491 20.2475 107.859 19.9868 108.12 19.6648C108.396 19.3275 108.534 18.9595 108.534 18.5608V16.6058Z" fill="#212121"/>
<path d="M118.773 22.2868C117.102 22.2868 115.798 21.7271 114.863 20.6078C113.943 19.4885 113.483 17.9781 113.483 16.0768C113.483 14.1754 113.943 12.6651 114.863 11.5458C115.798 10.4265 117.102 9.86678 118.773 9.86678C119.954 9.86678 120.904 10.1275 121.625 10.6488C122.346 11.1701 122.875 11.8371 123.212 12.6498L121.671 13.4318C121.456 12.8185 121.096 12.3431 120.59 12.0058C120.099 11.6684 119.494 11.4998 118.773 11.4998C117.684 11.4998 116.856 11.8371 116.289 12.5118C115.737 13.1711 115.461 14.0221 115.461 15.0648V17.0888C115.461 18.1161 115.737 18.9671 116.289 19.6418C116.856 20.3165 117.684 20.6538 118.773 20.6538C119.524 20.6538 120.168 20.4775 120.705 20.1248C121.242 19.7721 121.671 19.2585 121.993 18.5838L123.327 19.4808C122.944 20.3241 122.369 21.0065 121.602 21.5278C120.851 22.0338 119.908 22.2868 118.773 22.2868Z" fill="#212121"/>
<path d="M125.924 22.0108V4.99078H127.764V15.7778H127.856L129.673 13.7538L133.031 10.1428H135.262L130.869 14.8348L135.699 22.0108H133.468L129.535 15.9618L127.764 17.7788V22.0108H125.924Z" fill="#212121"/>
<defs>
<clipPath id="clip0_3368_1419">
<rect width="27" height="27" fill="white"/>
</clipPath>
</defs>
</svg>
